<svg width="41" height="40" viewBox="0 0 41 40" fill="none" xmlns="http://www.w3.org/2000/svg">
<g id="ph:washing-machine-duotone">
<g id="Group">
<path id="Vector" opacity="0.2" d="M29.4688 20C29.4688 21.7306 28.9427 23.4223 27.9572 24.8612C26.9717 26.3002 25.571 27.4217 23.9322 28.0839C22.2934 28.7462 20.4901 28.9195 18.7503 28.5819C17.0105 28.2442 15.4124 27.4109 14.1581 26.1872C12.9038 24.9635 12.0496 23.4044 11.7036 21.707C11.3575 20.0097 11.5351 18.2504 12.214 16.6515C12.8928 15.0527 14.0423 13.6861 15.5172 12.7246C16.9921 11.7632 18.7261 11.25 20.5 11.25C22.8787 11.25 25.1599 12.1719 26.8419 13.8128C28.5238 15.4538 29.4688 17.6794 29.4688 20Z" fill="black"/>
<path id="Vector_2" d="M33.3125 5H7.6875C7.00788 5 6.3561 5.26339 5.87554 5.73223C5.39498 6.20107 5.125 6.83696 5.125 7.5V32.5C5.125 33.163 5.39498 33.7989 5.87554 34.2678C6.3561 34.7366 7.00788 35 7.6875 35H33.3125C33.9921 35 34.6439 34.7366 35.1245 34.2678C35.605 33.7989 35.875 33.163 35.875 32.5V7.5C35.875 6.83696 35.605 6.20107 35.1245 5.73223C34.6439 5.26339 33.9921 5 33.3125 5ZM33.3125 32.5H7.6875V7.5H33.3125V32.5ZM20.5 10C18.4727 10 16.491 10.5865 14.8054 11.6853C13.1198 12.7841 11.806 14.3459 11.0302 16.1732C10.2544 18.0004 10.0515 20.0111 10.447 21.9509C10.8424 23.8907 11.8187 25.6725 13.2522 27.0711C14.6856 28.4696 16.512 29.422 18.5003 29.8079C20.4886 30.1937 22.5496 29.9957 24.4225 29.2388C26.2954 28.4819 27.8963 27.2002 29.0226 25.5557C30.1488 23.9112 30.75 21.9778 30.75 20C30.747 17.3487 29.6662 14.8069 27.7446 12.9321C25.823 11.0574 23.2176 10.0029 20.5 10ZM20.5 27.5C18.9796 27.5 17.4933 27.0601 16.2291 26.236C14.9649 25.4119 13.9795 24.2406 13.3977 22.8701C12.8158 21.4997 12.6636 19.9917 12.9602 18.5368C13.2568 17.082 13.989 15.7456 15.0641 14.6967C16.1392 13.6478 17.509 12.9335 19.0002 12.6441C20.4915 12.3547 22.0372 12.5032 23.4419 13.0709C24.8466 13.6386 26.0472 14.5999 26.8919 15.8332C27.7366 17.0666 28.1875 18.5166 28.1875 20C28.1854 21.9885 27.3748 23.8949 25.9335 25.301C24.4923 26.7071 22.5382 27.4979 20.5 27.5ZM32.0312 10.625C32.0312 10.9958 31.9185 11.3584 31.7074 11.6667C31.4962 11.975 31.196 12.2154 30.8448 12.3573C30.4937 12.4992 30.1072 12.5363 29.7344 12.464C29.3616 12.3916 29.0192 12.213 28.7504 11.9508C28.4816 11.6886 28.2986 11.3545 28.2244 10.9908C28.1503 10.6271 28.1883 10.2501 28.3338 9.90747C28.4793 9.56486 28.7256 9.27202 29.0416 9.06599C29.3577 8.85997 29.7293 8.75 30.1094 8.75C30.6191 8.75 31.1079 8.94754 31.4683 9.29917C31.8288 9.65081 32.0312 10.1277 32.0312 10.625ZM20.1252 18.3844L17.5627 20.8844C17.3223 21.1189 16.9962 21.2507 16.6562 21.2507C16.3163 21.2507 15.9902 21.1189 15.7498 20.8844C15.5094 20.6498 15.3743 20.3317 15.3743 20C15.3743 19.6683 15.5094 19.3502 15.7498 19.1156L18.3123 16.6156C18.5527 16.3811 18.8788 16.2493 19.2188 16.2493C19.5587 16.2493 19.8848 16.3811 20.1252 16.6156C20.3656 16.8502 20.5007 17.1683 20.5007 17.5C20.5007 17.8317 20.3656 18.1498 20.1252 18.3844ZM25.2502 17.8656C25.3694 17.9817 25.4639 18.1196 25.5283 18.2713C25.5928 18.4231 25.626 18.5857 25.626 18.75C25.626 18.9143 25.5928 19.0769 25.5283 19.2287C25.4639 19.3804 25.3694 19.5183 25.2502 19.6344L20.1252 24.6344C20.0062 24.7505 19.8649 24.8426 19.7093 24.9055C19.5538 24.9683 19.3871 25.0007 19.2188 25.0007C19.0504 25.0007 18.8837 24.9683 18.7282 24.9055C18.5726 24.8426 18.4313 24.7505 18.3123 24.6344C18.1932 24.5182 18.0988 24.3804 18.0344 24.2286C17.9699 24.0769 17.9368 23.9142 17.9368 23.75C17.9368 23.5858 17.9699 23.4231 18.0344 23.2714C18.0988 23.1196 18.1932 22.9818 18.3123 22.8656L23.4373 17.8656C23.5563 17.7494 23.6976 17.6572 23.8531 17.5943C24.0086 17.5314 24.1754 17.499 24.3438 17.499C24.5121 17.499 24.6789 17.5314 24.8344 17.5943C24.9899 17.6572 25.1312 17.7494 25.2502 17.8656Z" fill="black"/>
</g>
</g>
</svg>
